<?xml version="1.0" encoding="UTF-8" standalone="no"?>
<!DOCTYPE svg PUBLIC "-//W3C//DTD SVG 1.1//EN"
 "http://www.w3.org/Graphics/SVG/1.1/DTD/svg11.dtd">
<!-- Generated by graphviz version 15.1.0 (0)
 -->
<!-- Pages: 1 -->
<svg width="969pt" height="918pt"
 viewBox="0.00 0.00 969.00 918.00" xmlns="http://www.w3.org/2000/svg" xmlns:xlink="http://www.w3.org/1999/xlink">
<g id="graph0" class="graph" transform="scale(1 1) rotate(0) translate(4 914)">
<polygon fill="#191724" stroke="none" points="-4,4 -4,-914 964.62,-914 964.62,4 -4,4"/>
<g id="clust1" class="cluster">
<title>cluster_ctx_host</title>
<polygon fill="#1f1d2e" stroke="#6e6a86" stroke-dasharray="5,2" points="276.03,-8 276.03,-517 901.8,-517 901.8,-8 276.03,-8"/>
<text xml:space="preserve" text-anchor="middle" x="588.91" y="-499.7" font-family="Times,serif" font-size="14.00" fill="#e0def4">host { host }</text>
</g>
<g id="clust2" class="cluster">
<title>cluster_ctx_user</title>
<polygon fill="#1f1d2e" stroke="#6e6a86" stroke-dasharray="5,2" points="8,-525 8,-902 952.62,-902 952.62,-525 8,-525"/>
<text xml:space="preserve" text-anchor="middle" x="480.31" y="-884.7" font-family="Times,serif" font-size="14.00" fill="#e0def4">user { host, user }</text>
</g>
<!-- wrath -->
<g id="node1" class="node">
<title>wrath</title>
<path fill="#c4a7e7" stroke="#c4a7e7" d="M114.75,-268C114.75,-268 84.75,-268 84.75,-268 78.75,-268 72.75,-262 72.75,-256 72.75,-256 72.75,-244 72.75,-244 72.75,-238 78.75,-232 84.75,-232 84.75,-232 114.75,-232 114.75,-232 120.75,-232 126.75,-238 126.75,-244 126.75,-244 126.75,-256 126.75,-256 126.75,-262 120.75,-268 114.75,-268"/>
<text xml:space="preserve" text-anchor="middle" x="99.75" y="-244.95" font-family="Times,serif" font-size="14.00" fill="#191724">wrath</text>
</g>
<!-- auto_update -->
<g id="node2" class="node">
<title>auto_update</title>
<polygon fill="#c4a7e7" stroke="#c4a7e7" points="437.78,-52 358.03,-52 358.03,-16 437.78,-16 437.78,-52"/>
<text xml:space="preserve" text-anchor="middle" x="397.9" y="-28.95" font-family="Times,serif" font-size="14.00" fill="#191724">auto&#45;update</text>
</g>
<!-- wrath&#45;&gt;auto_update -->
<g id="edge12" class="edge">
<title>wrath&#45;&gt;auto_update</title>
<path fill="none" stroke="#908caa" d="M106.39,-231.77C119.39,-193.13 155.34,-103.08 219.5,-61 257.04,-36.38 308.52,-30.92 346.36,-30.86"/>
<polygon fill="#908caa" stroke="#908caa" points="346.08,-34.35 356.12,-30.97 346.17,-27.35 346.08,-34.35"/>
</g>
<!-- den__batteries__hostname -->
<g id="node5" class="node">
<title>den__batteries__hostname</title>
<polygon fill="#c4a7e7" stroke="#c4a7e7" points="464.41,-214 331.4,-214 284.03,-178 511.78,-178 464.41,-214"/>
<text xml:space="preserve" text-anchor="middle" x="397.9" y="-190.95" font-family="Times,serif" font-size="14.00" fill="#191724">batteries/hostname</text>
</g>
<!-- wrath&#45;&gt;den__batteries__hostname -->
<g id="edge13" class="edge">
<title>wrath&#45;&gt;den__batteries__hostname</title>
<path fill="none" stroke="#908caa" d="M127.05,-243.44C151.04,-237.6 187.51,-229.06 219.5,-223 248.68,-217.47 280.74,-212.31 309.47,-208.02"/>
<polygon fill="#908caa" stroke="#908caa" points="309.85,-211.5 319.23,-206.58 308.83,-204.58 309.85,-211.5"/>
</g>
<!-- macwhisper -->
<g id="node10" class="node">
<title>macwhisper</title>
<polygon fill="#c4a7e7" stroke="#c4a7e7" points="438.9,-322 356.9,-322 356.9,-286 438.9,-286 438.9,-322"/>
<text xml:space="preserve" text-anchor="middle" x="397.9" y="-298.95" font-family="Times,serif" font-size="14.00" fill="#191724">macwhisper</text>
</g>
<!-- wrath&#45;&gt;macwhisper -->
<g id="edge14" class="edge">
<title>wrath&#45;&gt;macwhisper</title>
<path fill="none" stroke="#908caa" d="M127.05,-256.56C151.04,-262.4 187.51,-270.94 219.5,-277 261.76,-285.01 310.03,-292.23 345.54,-297.19"/>
<polygon fill="#908caa" stroke="#908caa" points="344.72,-300.61 355.1,-298.51 345.68,-293.67 344.72,-300.61"/>
</g>
<!-- personal -->
<g id="node12" class="node">
<title>personal</title>
<polygon fill="#c4a7e7" stroke="#c4a7e7" points="428.78,-430 367.03,-430 367.03,-394 428.78,-394 428.78,-430"/>
<text xml:space="preserve" text-anchor="middle" x="397.9" y="-406.95" font-family="Times,serif" font-size="14.00" fill="#191724">personal</text>
</g>
<!-- wrath&#45;&gt;personal -->
<g id="edge15" class="edge">
<title>wrath&#45;&gt;personal</title>
<path fill="none" stroke="#908caa" d="M110.82,-268.03C128.53,-297.88 168.28,-357.01 219.5,-385 261.86,-408.15 317.95,-413.17 355.62,-413.52"/>
<polygon fill="#908caa" stroke="#908caa" points="355.17,-417.02 365.17,-413.5 355.16,-410.02 355.17,-417.02"/>
</g>
<!-- host_to_hm_users -->
<g id="node3" class="node">
<title>host_to_hm_users</title>
<polygon fill="#908caa" stroke="#908caa" points="452.03,-106 343.78,-106 343.78,-70 452.03,-70 452.03,-106"/>
<text xml:space="preserve" text-anchor="middle" x="397.9" y="-82.95" font-family="Times,serif" font-size="14.00" fill="#191724">host&#45;to&#45;hm&#45;users</text>
</g>
<!-- host_to_users -->
<g id="node4" class="node">
<title>host_to_users</title>
<polygon fill="#c4a7e7" stroke="#c4a7e7" points="440.78,-160 355.03,-160 355.03,-124 440.78,-124 440.78,-160"/>
<text xml:space="preserve" text-anchor="middle" x="397.9" y="-136.95" font-family="Times,serif" font-size="14.00" fill="#191724">host&#45;to&#45;users</text>
</g>
<!-- den__batteries__hostname__os -->
<g id="node6" class="node">
<title>den__batteries__hostname__os</title>
<polygon fill="#c4a7e7" stroke="#c4a7e7" points="887.67,-111 833.07,-144.48 723.86,-144.48 669.26,-111 723.86,-77.52 833.07,-77.52 887.67,-111"/>
<text xml:space="preserve" text-anchor="middle" x="778.47" y="-114.2" font-family="Times,serif" font-size="14.00" fill="#191724">batteries/hostname/os</text>
<text xml:space="preserve" text-anchor="middle" x="778.47" y="-97.7" font-family="Times,serif" font-size="14.00" fill="#191724">({ host })</text>
</g>
<!-- den__batteries__hostname&#45;&gt;den__batteries__hostname__os -->
<g id="edge2" class="edge">
<title>den__batteries__hostname&#45;&gt;den__batteries__hostname__os</title>
<path fill="none" stroke="#908caa" d="M503.93,-184.34C527.95,-180.48 553.21,-175.47 576.31,-169 593,-164.33 595.88,-159.53 612.31,-154 636.29,-145.92 662.66,-138.45 687.15,-132.08"/>
<polygon fill="#908caa" stroke="#908caa" points="687.97,-135.48 696.79,-129.6 686.23,-128.7 687.97,-135.48"/>
</g>
<!-- insecure_predicate -->
<g id="node7" class="node">
<title>insecure_predicate</title>
<polygon fill="#908caa" stroke="#908caa" points="455.4,-268 340.4,-268 340.4,-232 455.4,-232 455.4,-268"/>
<text xml:space="preserve" text-anchor="middle" x="397.9" y="-244.95" font-family="Times,serif" font-size="14.00" fill="#191724">insecure&#45;predicate</text>
</g>
<!-- insecure_predicate__os -->
<g id="node8" class="node">
<title>insecure_predicate__os</title>
<polygon fill="#c4a7e7" stroke="#c4a7e7" points="885.22,-196 831.84,-229.48 725.09,-229.48 671.71,-196 725.09,-162.52 831.84,-162.52 885.22,-196"/>
<text xml:space="preserve" text-anchor="middle" x="778.47" y="-199.2" font-family="Times,serif" font-size="14.00" fill="#191724">insecure&#45;predicate/os</text>
<text xml:space="preserve" text-anchor="middle" x="778.47" y="-182.7" font-family="Times,serif" font-size="14.00" fill="#191724">({ host })</text>
</g>
<!-- insecure_predicate&#45;&gt;insecure_predicate__os -->
<g id="edge3" class="edge">
<title>insecure_predicate&#45;&gt;insecure_predicate__os</title>
<path fill="none" stroke="#908caa" d="M455.58,-241.92C514.71,-233.48 608.53,-220.1 679.66,-209.95"/>
<polygon fill="#908caa" stroke="#908caa" points="679.97,-213.44 689.37,-208.57 678.98,-206.51 679.97,-213.44"/>
</g>
<!-- insecure_predicate__user -->
<g id="node9" class="node">
<title>insecure_predicate__user</title>
<polygon fill="#908caa" stroke="#908caa" points="893.8,-281 836.13,-314.48 720.8,-314.48 663.14,-281 720.8,-247.52 836.13,-247.52 893.8,-281"/>
<text xml:space="preserve" text-anchor="middle" x="778.47" y="-284.2" font-family="Times,serif" font-size="14.00" fill="#191724">insecure&#45;predicate/user</text>
<text xml:space="preserve" text-anchor="middle" x="778.47" y="-267.7" font-family="Times,serif" font-size="14.00" fill="#191724">({ host, user })</text>
</g>
<!-- insecure_predicate&#45;&gt;insecure_predicate__user -->
<g id="edge4" class="edge">
<title>insecure_predicate&#45;&gt;insecure_predicate__user</title>
<path fill="none" stroke="#908caa" d="M455.58,-254.64C510.78,-259.16 596.2,-266.16 665.19,-271.81"/>
<polygon fill="#908caa" stroke="#908caa" points="664.79,-275.28 675.04,-272.61 665.36,-268.31 664.79,-275.28"/>
</g>
<!-- os_to_host_host_wrath -->
<g id="node11" class="node">
<title>os_to_host_host_wrath</title>
<polygon fill="#908caa" stroke="#908caa" points="432.9,-376 362.9,-376 362.9,-340 432.9,-340 432.9,-376"/>
<text xml:space="preserve" text-anchor="middle" x="397.9" y="-352.95" font-family="Times,serif" font-size="14.00" fill="#191724">os&#45;to&#45;host</text>
</g>
<!-- unfree_predicate -->
<g id="node13" class="node">
<title>unfree_predicate</title>
<polygon fill="#908caa" stroke="#908caa" points="450.15,-484 345.65,-484 345.65,-448 450.15,-448 450.15,-484"/>
<text xml:space="preserve" text-anchor="middle" x="397.9" y="-460.95" font-family="Times,serif" font-size="14.00" fill="#191724">unfree&#45;predicate</text>
</g>
<!-- unfree_predicate__os -->
<g id="node14" class="node">
<title>unfree_predicate__os</title>
<polygon fill="#f6c177" stroke="#f6c177" points="876.65,-366 827.56,-399.48 729.37,-399.48 680.28,-366 729.37,-332.52 827.56,-332.52 876.65,-366"/>
<text xml:space="preserve" text-anchor="middle" x="778.47" y="-369.2" font-family="Times,serif" font-size="14.00" fill="#191724">unfree&#45;predicate/os</text>
<text xml:space="preserve" text-anchor="middle" x="778.47" y="-352.7" font-family="Times,serif" font-size="14.00" fill="#191724">({ host })</text>
</g>
<!-- unfree_predicate&#45;&gt;unfree_predicate__os -->
<g id="edge10" class="edge">
<title>unfree_predicate&#45;&gt;unfree_predicate__os</title>
<path fill="none" stroke="#908caa" d="M450.28,-465.44C486.86,-463.34 536.39,-456.96 576.31,-439 595.3,-430.45 593.78,-418.52 612.31,-409 635.61,-397.03 662.52,-388.19 687.76,-381.76"/>
<polygon fill="#908caa" stroke="#908caa" points="688.48,-385.19 697.37,-379.42 686.82,-378.39 688.48,-385.19"/>
</g>
<!-- unfree_predicate__user -->
<g id="node15" class="node">
<title>unfree_predicate__user</title>
<polygon fill="#f6c177" stroke="#f6c177" points="885.22,-451 831.84,-484.48 725.09,-484.48 671.71,-451 725.09,-417.52 831.84,-417.52 885.22,-451"/>
<text xml:space="preserve" text-anchor="middle" x="778.47" y="-454.2" font-family="Times,serif" font-size="14.00" fill="#191724">unfree&#45;predicate/user</text>
<text xml:space="preserve" text-anchor="middle" x="778.47" y="-437.7" font-family="Times,serif" font-size="14.00" fill="#191724">({ host, user })</text>
</g>
<!-- unfree_predicate&#45;&gt;unfree_predicate__user -->
<g id="edge11" class="edge">
<title>unfree_predicate&#45;&gt;unfree_predicate__user</title>
<path fill="none" stroke="#908caa" d="M450.35,-463.96C505.52,-461.78 594.81,-458.24 666.18,-455.41"/>
<polygon fill="#908caa" stroke="#908caa" points="666.1,-458.92 675.96,-455.02 665.82,-451.92 666.1,-458.92"/>
</g>
<!-- _policy_hm_user_detect__0_ -->
<g id="node16" class="node">
<title>_policy_hm_user_detect__0_</title>
<polygon fill="#908caa" stroke="#908caa" points="183.5,-569 16,-569 16,-533 183.5,-533 183.5,-569"/>
<text xml:space="preserve" text-anchor="middle" x="99.75" y="-545.95" font-family="Times,serif" font-size="14.00" fill="#191724">&lt;policy:hm&#45;user&#45;detect&gt;[0]</text>
</g>
<!-- den__batteries__define_user -->
<g id="node17" class="node">
<title>den__batteries__define_user</title>
<polygon fill="#908caa" stroke="#908caa" points="469.06,-592 326.75,-592 276.06,-556 519.75,-556 469.06,-592"/>
<text xml:space="preserve" text-anchor="middle" x="397.9" y="-568.95" font-family="Times,serif" font-size="14.00" fill="#191724">batteries/define&#45;user</text>
</g>
<!-- den__batteries__define_user__justin_wrath -->
<g id="node18" class="node">
<title>den__batteries__define_user__justin_wrath</title>
<polygon fill="#908caa" stroke="#908caa" points="944.62,-574 861.54,-607.48 695.39,-607.48 612.31,-574 695.39,-540.52 861.54,-540.52 944.62,-574"/>
<text xml:space="preserve" text-anchor="middle" x="778.47" y="-577.2" font-family="Times,serif" font-size="14.00" fill="#191724">batteries/define&#45;user/justin@wrath</text>
<text xml:space="preserve" text-anchor="middle" x="778.47" y="-560.7" font-family="Times,serif" font-size="14.00" fill="#191724">({ host, user })</text>
</g>
<!-- den__batteries__define_user&#45;&gt;den__batteries__define_user__justin_wrath -->
<g id="edge1" class="edge">
<title>den__batteries__define_user&#45;&gt;den__batteries__define_user__justin_wrath</title>
<path fill="none" stroke="#908caa" d="M494.92,-574C526.98,-574 563.8,-574 600.04,-574"/>
<polygon fill="#908caa" stroke="#908caa" points="599.74,-577.5 609.74,-574 599.74,-570.5 599.74,-577.5"/>
</g>
<!-- hm_user_detect -->
<g id="node19" class="node">
<title>hm_user_detect</title>
<polygon fill="#eb6f92" stroke="#eb6f92" points="148.62,-623 50.88,-623 50.88,-587 148.62,-587 148.62,-623"/>
<text xml:space="preserve" text-anchor="middle" x="99.75" y="-599.95" font-family="Times,serif" font-size="14.00" fill="#191724">hm&#45;user&#45;detect</text>
</g>
<!-- den__batteries__host_aspects -->
<g id="node20" class="node">
<title>den__batteries__host_aspects</title>
<polygon fill="#eb6f92" stroke="#eb6f92" points="472.02,-646 323.79,-646 271,-610 524.81,-610 472.02,-646"/>
<text xml:space="preserve" text-anchor="middle" x="397.9" y="-622.95" font-family="Times,serif" font-size="14.00" fill="#191724">batteries/host&#45;aspects</text>
</g>
<!-- host_aspects_project -->
<g id="node21" class="node">
<title>host_aspects_project</title>
<polygon fill="#908caa" stroke="#908caa" points="161.75,-677 37.75,-677 37.75,-641 161.75,-641 161.75,-677"/>
<text xml:space="preserve" text-anchor="middle" x="99.75" y="-653.95" font-family="Times,serif" font-size="14.00" fill="#191724">host&#45;aspects&#45;project</text>
</g>
<!-- justin -->
<g id="node22" class="node">
<title>justin</title>
<polygon fill="#eb6f92" stroke="#eb6f92" points="155.68,-728 127.72,-761.48 71.78,-761.48 43.82,-728 71.78,-694.52 127.72,-694.52 155.68,-728"/>
<text xml:space="preserve" text-anchor="middle" x="99.75" y="-731.2" font-family="Times,serif" font-size="14.00" fill="#191724">justin</text>
<text xml:space="preserve" text-anchor="middle" x="99.75" y="-714.7" font-family="Times,serif" font-size="14.00" fill="#191724">({ user })</text>
</g>
<!-- justin&#45;&gt;den__batteries__define_user -->
<g id="edge5" class="edge">
<title>justin&#45;&gt;den__batteries__define_user</title>
<path fill="none" stroke="#908caa" d="M143.67,-713.14C157.78,-706.58 172.62,-697.66 183.5,-686 211.49,-656.01 187.1,-626.17 219.5,-601 238.51,-586.23 262.2,-577.92 286.02,-573.51"/>
<polygon fill="#908caa" stroke="#908caa" points="286.51,-576.97 295.83,-571.94 285.41,-570.06 286.51,-576.97"/>
</g>
<!-- justin&#45;&gt;den__batteries__host_aspects -->
<g id="edge6" class="edge">
<title>justin&#45;&gt;den__batteries__host_aspects</title>
<path fill="none" stroke="#908caa" d="M140.99,-710C154.87,-703.17 170.25,-694.88 183.5,-686 201.04,-674.25 200.32,-663.82 219.5,-655 241.96,-644.67 267.54,-638.15 292.15,-634.07"/>
<polygon fill="#908caa" stroke="#908caa" points="292.52,-637.56 301.88,-632.59 291.46,-630.64 292.52,-637.56"/>
</g>
<!-- nixible -->
<g id="node23" class="node">
<title>nixible</title>
<polygon fill="#eb6f92" stroke="#eb6f92" points="424.9,-700 370.9,-700 370.9,-664 424.9,-664 424.9,-700"/>
<text xml:space="preserve" text-anchor="middle" x="397.9" y="-676.95" font-family="Times,serif" font-size="14.00" fill="#191724">nixible</text>
</g>
<!-- justin&#45;&gt;nixible -->
<g id="edge7" class="edge">
<title>justin&#45;&gt;nixible</title>
<path fill="none" stroke="#908caa" d="M149.56,-720.1C171.01,-716.66 196.5,-712.59 219.5,-709 267.83,-701.46 323.61,-693.01 359.52,-687.61"/>
<polygon fill="#908caa" stroke="#908caa" points="359.58,-691.14 368.95,-686.19 358.54,-684.21 359.58,-691.14"/>
</g>
<!-- den__batteries__primary_user_justin_wrath_ -->
<g id="node25" class="node">
<title>den__batteries__primary_user_justin_wrath_</title>
<polygon fill="#f6c177" stroke="#f6c177" points="576.31,-751 487.11,-784.48 308.7,-784.48 219.5,-751 308.7,-717.52 487.11,-717.52 576.31,-751"/>
<text xml:space="preserve" text-anchor="middle" x="397.9" y="-754.2" font-family="Times,serif" font-size="14.00" fill="#191724">batteries/primary&#45;user(justin@wrath)</text>
<text xml:space="preserve" text-anchor="middle" x="397.9" y="-737.7" font-family="Times,serif" font-size="14.00" fill="#191724">({ host, user })</text>
</g>
<!-- justin&#45;&gt;den__batteries__primary_user_justin_wrath_ -->
<g id="edge8" class="edge">
<title>justin&#45;&gt;den__batteries__primary_user_justin_wrath_</title>
<path fill="none" stroke="#908caa" d="M152.68,-732.03C176.76,-733.9 206.82,-736.24 237.53,-738.62"/>
<polygon fill="#908caa" stroke="#908caa" points="237.12,-742.1 247.36,-739.39 237.66,-735.12 237.12,-742.1"/>
</g>
<!-- user_shell__justin_wrath -->
<g id="node26" class="node">
<title>user_shell__justin_wrath</title>
<polygon fill="#f6c177" stroke="#f6c177" points="516.91,-836 457.41,-869.48 338.4,-869.48 278.9,-836 338.4,-802.52 457.41,-802.52 516.91,-836"/>
<text xml:space="preserve" text-anchor="middle" x="397.9" y="-839.2" font-family="Times,serif" font-size="14.00" fill="#191724">user&#45;shell/justin@wrath</text>
<text xml:space="preserve" text-anchor="middle" x="397.9" y="-822.7" font-family="Times,serif" font-size="14.00" fill="#191724">({ host, user })</text>
</g>
<!-- justin&#45;&gt;user_shell__justin_wrath -->
<g id="edge9" class="edge">
<title>justin&#45;&gt;user_shell__justin_wrath</title>
<path fill="none" stroke="#908caa" d="M140.32,-747.09C154.14,-754.01 169.65,-762.09 183.5,-770 199.99,-779.42 202.04,-785.55 219.5,-793 243.37,-803.18 270.12,-811.25 295.46,-817.51"/>
<polygon fill="#908caa" stroke="#908caa" points="294.6,-820.9 305.14,-819.82 296.23,-814.1 294.6,-820.9"/>
</g>
<!-- os_to_host_user_justin -->
<g id="node24" class="node">
<title>os_to_host_user_justin</title>
<polygon fill="#f6c177" stroke="#f6c177" points="134.75,-815 64.75,-815 64.75,-779 134.75,-779 134.75,-815"/>
<text xml:space="preserve" text-anchor="middle" x="99.75" y="-791.95" font-family="Times,serif" font-size="14.00" fill="#191724">os&#45;to&#45;host</text>
</g>
<!-- user_to_host -->
<g id="node27" class="node">
<title>user_to_host</title>
<polygon fill="#908caa" stroke="#908caa" points="140,-869 59.5,-869 59.5,-833 140,-833 140,-869"/>
<text xml:space="preserve" text-anchor="middle" x="99.75" y="-845.95" font-family="Times,serif" font-size="14.00" fill="#191724">user&#45;to&#45;host</text>
</g>
</g>
</svg>
